<svg xmlns="http://www.w3.org/2000/svg" style="display:none">

  <!-- categorias -->
  <symbol id="ic-hatch" viewBox="0 0 64 64" fill="none" stroke="currentColor" stroke-width="2.4" stroke-linecap="round" stroke-linejoin="round">
    <path d="M6 40 L11 26 Q14 20 22 20 L38 20 Q44 20 47 25 L54 36 L58 40 L58 46 L6 46 Z"/>
    <circle cx="18" cy="46" r="6"/>
    <circle cx="46" cy="46" r="6"/>
    <path d="M20 20 L24 30 L44 30 L40 20"/>
  </symbol>

  <symbol id="ic-sedan" viewBox="0 0 64 64" fill="none" stroke="currentColor" stroke-width="2.4" stroke-linecap="round" stroke-linejoin="round">
    <path d="M4 42 L8 27 Q10 22 16 22 L22 22 L27 15 L41 15 L46 22 L50 22 Q56 22 58 28 L60 42 L60 46 L4 46 Z"/>
    <circle cx="16" cy="46" r="6"/>
    <circle cx="47" cy="46" r="6"/>
    <path d="M23 22 L27 30 L45 30 L48 22"/>
  </symbol>

  <symbol id="ic-suv" viewBox="0 0 64 64" fill="none" stroke="currentColor" stroke-width="2.4" stroke-linecap="round" stroke-linejoin="round">
    <path d="M4 40 L6 26 Q8 18 18 18 L44 18 Q52 18 55 26 L60 38 L60 46 L4 46 Z"/>
    <circle cx="17" cy="47" r="7"/>
    <circle cx="47" cy="47" r="7"/>
    <path d="M18 18 L20 30 L46 30 L47 18"/>
    <path d="M4 38 L60 38"/>
  </symbol>

  <symbol id="ic-picape" viewBox="0 0 64 64" fill="none" stroke="currentColor" stroke-width="2.4" stroke-linecap="round" stroke-linejoin="round">
    <path d="M4 44 L4 33 L14 20 Q17 17 22 17 L30 17 L30 33"/>
    <path d="M30 33 L30 44"/>
    <path d="M30 33 L58 33 Q60 33 60 37 L60 44"/>
    <path d="M4 44 L60 44"/>
    <circle cx="15" cy="47" r="6.5"/>
    <circle cx="49" cy="47" r="6.5"/>
    <path d="M14 20 L20 28 L30 28"/>
  </symbol>

  <symbol id="ic-utilitario" viewBox="0 0 64 64" fill="none" stroke="currentColor" stroke-width="2.4" stroke-linecap="round" stroke-linejoin="round">
    <path d="M4 22 L38 22 L38 44 L4 44 Z"/>
    <path d="M38 30 L50 30 Q56 30 58 36 L60 44 L38 44"/>
    <circle cx="15" cy="47" r="6.5"/>
    <circle cx="49" cy="47" r="6.5"/>
    <path d="M44 30 L44 38 L58 38"/>
  </symbol>

  <symbol id="ic-moto" viewBox="0 0 64 64" fill="none" stroke="currentColor" stroke-width="2.4" stroke-linecap="round" stroke-linejoin="round">
    <circle cx="14" cy="46" r="8"/>
    <circle cx="50" cy="46" r="8"/>
    <path d="M14 46 L26 30 L38 30 L44 46"/>
    <path d="M26 30 L22 20 L32 20"/>
    <path d="M38 30 L46 24 L54 24"/>
    <path d="M50 46 L44 46"/>
  </symbol>

  <symbol id="ic-selo" viewBox="0 0 64 64" fill="none" stroke="currentColor" stroke-width="2.4" stroke-linecap="round" stroke-linejoin="round">
    <circle cx="32" cy="32" r="26"/>
    <path d="M22 33 L28 39 L43 24"/>
  </symbol>

  <!-- ações -->
  <symbol id="ic-search" viewBox="0 0 24 24" fill="none" stroke="currentColor" stroke-width="2" stroke-linecap="round" stroke-linejoin="round">
    <circle cx="11" cy="11" r="7"/>
    <path d="M21 21 L16.65 16.65"/>
  </symbol>

  <symbol id="ic-user" viewBox="0 0 24 24" fill="none" stroke="currentColor" stroke-width="2" stroke-linecap="round" stroke-linejoin="round">
    <path d="M4 20 Q4 13 12 13 Q20 13 20 20"/>
    <circle cx="12" cy="7" r="4"/>
  </symbol>

  <symbol id="ic-money" viewBox="0 0 24 24" fill="none" stroke="currentColor" stroke-width="2" stroke-linecap="round" stroke-linejoin="round">
    <rect x="2.5" y="6" width="19" height="12" rx="2"/>
    <circle cx="12" cy="12" r="3"/>
    <path d="M6 9 L6 15 M18 9 L18 15"/>
  </symbol>

  <symbol id="ic-heart" viewBox="0 0 24 24" fill="none" stroke="currentColor" stroke-width="2" stroke-linecap="round" stroke-linejoin="round">
    <path d="M12 20 C6 15 2 11.5 2 7.8 C2 4.9 4.3 3 6.8 3 C8.6 3 10.4 4 12 6 C13.6 4 15.4 3 17.2 3 C19.7 3 22 4.9 22 7.8 C22 11.5 18 15 12 20 Z"/>
  </symbol>

  <symbol id="ic-test" viewBox="0 0 24 24" fill="none" stroke="currentColor" stroke-width="2" stroke-linecap="round" stroke-linejoin="round">
    <path d="M3 17 L4 12 Q5 9 8 9 L15 9 Q17.5 9 18.5 11.5 L21 17"/>
    <circle cx="7" cy="17" r="2.3"/>
    <circle cx="18" cy="17" r="2.3"/>
    <path d="M9 9 L9 5 L14 5"/>
  </symbol>

  <symbol id="ic-close" viewBox="0 0 24 24" fill="none" stroke="currentColor" stroke-width="2" stroke-linecap="round" stroke-linejoin="round">
    <path d="M6 6 L18 18 M18 6 L6 18"/>
  </symbol>

  <symbol id="ic-chevron" viewBox="0 0 24 24" fill="none" stroke="currentColor" stroke-width="2" stroke-linecap="round" stroke-linejoin="round">
    <path d="M6 9 L12 15 L18 9"/>
  </symbol>

  <symbol id="ic-whats" viewBox="0 0 24 24" fill="currentColor">
    <path d="M12.04 2C6.58 2 2.13 6.45 2.13 11.91c0 1.79.47 3.47 1.29 4.93L2 22l5.29-1.39c1.4.76 3 1.2 4.71 1.2h.01c5.46 0 9.91-4.45 9.91-9.91C21.92 6.45 17.5 2 12.04 2zm5.79 14.02c-.24.68-1.4 1.32-1.94 1.4-.5.08-1.13.11-1.82-.11-.42-.13-.96-.31-1.65-.6-2.9-1.25-4.79-4.16-4.94-4.35-.14-.19-1.18-1.57-1.18-3 0-1.42.75-2.12 1.02-2.41.27-.29.58-.36.78-.36.19 0 .39 0 .56.01.18.01.42-.07.65.5.24.58.82 2 .89 2.15.07.14.12.31.02.5-.09.19-.14.31-.28.48-.14.16-.29.36-.42.49-.14.14-.28.28-.12.56.16.28.72 1.19 1.55 1.93 1.06.95 1.96 1.24 2.24 1.38.28.14.44.12.61-.07.16-.19.7-.81.88-1.09.19-.28.37-.23.62-.14.26.09 1.64.77 1.92.91.28.14.47.21.54.33.07.12.07.68-.17 1.36z"/>
  </symbol>

  <!-- extras usados em spec/ícones de página -->
  <symbol id="ic-shield" viewBox="0 0 24 24" fill="none" stroke="currentColor" stroke-width="2" stroke-linecap="round" stroke-linejoin="round">
    <path d="M12 3 L20 6 L20 11 Q20 18 12 21 Q4 18 4 11 L4 6 Z"/>
    <path d="M9 12 L11.3 14.3 L15.5 9.5"/>
  </symbol>

  <symbol id="ic-doc" viewBox="0 0 24 24" fill="none" stroke="currentColor" stroke-width="2" stroke-linecap="round" stroke-linejoin="round">
    <path d="M6 2 L14 2 L19 7 L19 22 L6 22 Z"/>
    <path d="M14 2 L14 7 L19 7"/>
    <path d="M9 12 L15 12 M9 16 L15 16"/>
  </symbol>

  <symbol id="ic-wrench" viewBox="0 0 24 24" fill="none" stroke="currentColor" stroke-width="2" stroke-linecap="round" stroke-linejoin="round">
    <path d="M14.7 6.3 a4 4 0 1 1 -5.4 5.4 L4 17 L4 20 L7 20 L12.3 14.7 a4 4 0 0 1 5.4 -5.4"/>
    <path d="M17 6 L18 5 L20 5 L20 7 L19 8 Z"/>
  </symbol>

</svg>
